<?xml version="1.0" encoding="UTF-8" standalone="no"?>
<svg
   viewBox="0 0 36 36"
   version="1.1"
   id="svg51"
   sodipodi:docname="ship.svg"
   inkscape:export-filename="/home/lenovo/Documents/space_invaders/assets/space.png"
   inkscape:export-xdpi="96"
   inkscape:export-ydpi="96"
   inkscape:version="1.2 (dc2aedaf03, 2022-05-15)"
   xmlns:inkscape="http://www.inkscape.org/namespaces/inkscape"
   xmlns:sodipodi="http://sodipodi.sourceforge.net/DTD/sodipodi-0.dtd"
   xmlns="http://www.w3.org/2000/svg"
   xmlns:svg="http://www.w3.org/2000/svg">
  <defs
     id="defs55" />
  <sodipodi:namedview
     id="namedview53"
     pagecolor="#505050"
     bordercolor="#eeeeee"
     borderopacity="1"
     inkscape:pageshadow="0"
     inkscape:pageopacity="0"
     inkscape:pagecheckerboard="0"
     showgrid="false"
     inkscape:zoom="2.5436202"
     inkscape:cx="7.6662387"
     inkscape:cy="94.157137"
     inkscape:window-width="1366"
     inkscape:window-height="733"
     inkscape:window-x="0"
     inkscape:window-y="30"
     inkscape:window-maximized="1"
     inkscape:current-layer="svg51"
     inkscape:showpageshadow="0"
     inkscape:deskcolor="#505050" />
  <path
     fill="#31373D"
     d="M 108,107.99993 0,107.97274 0.26873843,0 107.99904,0.02366949 c 0,0 -0.0443,84.39915651 9.6e-4,107.97633051 z"
     id="path49"
     style="fill:#11111b;fill-opacity:1;stroke-width:2.99085"
     sodipodi:nodetypes="ccccc"
     inkscape:export-filename="/home/lenovo/Documents/space_invaders/assets/ship.png"
     inkscape:export-xdpi="96"
     inkscape:export-ydpi="96" />
  <g
     transform="matrix(0.0245098,0,0,-0.02314815,-51.392148,113.25927)"
     fill="#000000"
     stroke="none"
     id="g8020"
     style="fill:#181825;fill-opacity:1"
     inkscape:export-filename="ship.png"
     inkscape:export-xdpi="96"
     inkscape:export-ydpi="96">
    <path
       d="M 3940,4360 V 4000 H 3820 3700 V 3760 3520 H 3340 2980 V 3160 2800 H 2620 2260 V 1600 400 h 360 360 v 120 120 h 480 480 V 520 400 h 360 360 v 120 120 h 480 480 V 520 400 h 360 360 v 1200 1200 h -360 -360 v 360 360 h -360 -360 v 240 240 h -120 -120 v 360 360 h -360 -360 z m 480,-240 v -360 h 120 120 v -480 -480 h 120 120 v -240 -240 h 120 120 v 240 240 h 120 120 v -240 -240 h -120 -120 v -120 -120 h 120 120 v -120 -120 h 120 120 v -120 -120 h 120 120 v 240 240 h 120 120 V 1360 640 h -120 -120 v 120 120 h -120 -120 v 120 120 h -120 -120 v 120 120 h -240 -240 v 120 120 H 4780 4660 V 1360 1120 H 4540 4420 V 880 640 h -120 -120 v 240 240 h -120 -120 v 240 240 H 3820 3700 V 1480 1360 H 3460 3220 V 1240 1120 H 3100 2980 V 1000 880 H 2860 2740 V 760 640 h -120 -120 v 720 720 h 120 120 v -240 -240 h 120 120 v 120 120 h 120 120 v 120 120 h 120 120 v 120 120 h -120 -120 v 240 240 h 120 120 v -240 -240 h 120 120 v 240 240 h 120 120 v 480 480 h 120 120 v 360 360 h 120 120 z"
       id="path8016"
       style="fill:#181825;fill-opacity:1" />
    <path
       d="m 4180,2440 v -120 h -120 -120 v -240 -240 h 120 120 v 120 120 h 120 120 v -120 -120 h 120 120 v 240 240 h -120 -120 v 120 120 h -120 -120 z"
       id="path8018"
       style="fill:#181825;fill-opacity:1" />
  </g>
  <path
     style="fill:#74c7ec;fill-opacity:1;stroke-width:0.434363"
     d="M 10.020764,81.907851 V 65.402054 h 2.82336 2.823359 v 5.429539 5.429538 h 3.040541 3.040542 V 73.43777 70.614412 h 3.040541 3.040542 v -2.606179 -2.606179 h 2.82336 2.82336 V 62.59854 59.795027 l 2.931951,-0.128438 2.931951,-0.128437 0.121562,-5.538129 0.121563,-5.53813 h 2.810382 2.810382 V 37.385635 26.309377 h 3.040541 3.040542 V 18.056479 9.8035809 h 2.82336 2.82336 v 8.2528981 8.252898 h 2.82336 2.823359 v 11.076258 11.076258 h 3.040541 3.040542 v 5.646721 5.646721 h 2.802632 2.802637 l 0.129312,2.714768 0.129313,2.714769 2.931951,0.128438 2.931951,0.128437 v 2.566487 2.566487 l 2.931948,0.128437 2.93195,0.128438 v 2.715559 2.715565 l 3.14914,-8.69e-4 3.14913,-8.69e-4 V 70.83144 65.401902 h 2.82336 2.82336 v 16.505796 16.505799 h -2.82336 -2.82336 v -2.82336 -2.82336 h -3.04054 -3.04055 v -2.82336 -2.82336 h -2.80263 -2.802634 l -0.129313,-2.71477 -0.129312,-2.71477 -5.972493,-0.120844 -5.972492,-0.120844 V 78.85491 76.260988 h -3.040542 -3.040541 v 5.429538 5.429541 h -2.823359 -2.82336 v 5.64672 5.64672 h -2.82336 -2.82336 v -5.64672 -5.64672 h -3.040531 -3.040541 v -5.42955 -5.429538 h -3.040542 -3.040541 v 2.593568 2.593574 l -5.75531,0.121188 -5.755311,0.121203 -0.128812,2.695385 -0.128813,2.69538 -2.911727,0.12799 -2.911728,0.12812 -0.129312,2.71477 -0.129313,2.71477 h -2.802633 -2.802634 v 2.82336 2.82336 h -2.823359 -2.82336 z m 41.26449,-13.899618 v -2.606179 h 2.82336 2.82336 v 2.606179 2.606179 h 3.040542 3.040541 V 64.967691 59.32097 h -3.040541 -3.040542 v -2.843205 -2.843206 l -2.931951,0.128436 -2.931951,0.128438 -0.129312,2.714769 -0.129313,2.714768 H 48.006814 45.20418 v 5.646721 5.646721 h 3.040542 3.040541 z"
     id="path8605"
     inkscape:export-filename="/home/lenovo/Documents/space_invaders/assets/ship.png"
     inkscape:export-xdpi="96"
     inkscape:export-ydpi="96" />
  <path
     style="fill:#a6e3a1;fill-opacity:1;stroke-width:0.434363"
     d="m 74.523678,53.891433 v -5.42954 h 2.82336 2.82336 v 5.42954 5.429537 h -2.82336 -2.82336 z"
     id="path8871"
     inkscape:export-filename="/home/lenovo/Documents/space_invaders/assets/ship.png"
     inkscape:export-xdpi="96"
     inkscape:export-ydpi="96" />
  <path
     style="fill:#a6e3a1;fill-opacity:1;stroke-width:0.434363"
     d="m 27.612467,53.891433 v -5.42954 h 2.82336 2.823361 v 5.42954 5.429537 h -2.823361 -2.82336 z"
     id="path9011"
     inkscape:export-filename="/home/lenovo/Documents/space_invaders/assets/ship.png"
     inkscape:export-xdpi="96"
     inkscape:export-ydpi="96" />
</svg>
