<?xml version="1.0" encoding="UTF-8" standalone="no"?>
<svg
   viewBox="0 0 36 36"
   version="1.1"
   id="svg51"
   sodipodi:docname="alien.svg"
   inkscape:export-filename="/home/lenovo/Documents/space_invaders/assets/bullet.png"
   inkscape:export-xdpi="96"
   inkscape:export-ydpi="96"
   inkscape:version="1.2 (dc2aedaf03, 2022-05-15)"
   xmlns:inkscape="http://www.inkscape.org/namespaces/inkscape"
   xmlns:sodipodi="http://sodipodi.sourceforge.net/DTD/sodipodi-0.dtd"
   xmlns="http://www.w3.org/2000/svg"
   xmlns:svg="http://www.w3.org/2000/svg">
  <defs
     id="defs55" />
  <sodipodi:namedview
     id="namedview53"
     pagecolor="#505050"
     bordercolor="#eeeeee"
     borderopacity="1"
     inkscape:pageshadow="0"
     inkscape:pageopacity="0"
     inkscape:pagecheckerboard="0"
     showgrid="false"
     inkscape:zoom="3.5972222"
     inkscape:cx="42.671815"
     inkscape:cy="62.131275"
     inkscape:window-width="1342"
     inkscape:window-height="719"
     inkscape:window-x="14"
     inkscape:window-y="40"
     inkscape:window-maximized="0"
     inkscape:current-layer="svg51"
     inkscape:lockguides="false"
     inkscape:showpageshadow="0"
     inkscape:deskcolor="#505050" />
  <path
     fill="#31373D"
     d="M 108,107.99993 0,107.97274 0.26873843,0 107.99904,0.02366949 c 0,0 -0.0443,84.39915651 9.6e-4,107.97633051 z"
     id="path49"
     style="fill:#11111b;fill-opacity:1;stroke-width:2.99085"
     sodipodi:nodetypes="ccccc"
     inkscape:export-filename="alien.png"
     inkscape:export-xdpi="96"
     inkscape:export-ydpi="96" />
  <path
     fill="#553986"
     d="m 76.222222,85.696971 h 11.11112 V 96 h -11.11112 z m -55.555556,0 H 31.777777 V 96 H 20.666666 Z M 87.333342,31.606061 H 81.777779 V 26.454542 H 76.222222 V 21.303028 H 67.888888 V 11 H 62.333332 V 21.303028 H 45.666667 V 11 H 40.11111 v 10.303028 h -8.333333 v 5.151514 h -5.555553 v 5.151519 H 20.666666 V 49.636364 H 9.5555537 v 5.151513 H 20.666666 v 18.030304 h 11.111111 v 12.87879 h 13.88889 v -12.87879 h 16.666665 v 12.87879 h 13.88889 v -12.87879 h 11.11112 V 54.787877 H 98.444445 V 49.636364 H 87.333342 Z M 48.444445,59.939394 H 37.333335 V 39.333332 h 11.11111 z m 11.11111,0 V 39.333332 h 11.111111 v 20.606062 z m 38.88889,-38.636366 h 5.555565 V 49.636364 H 98.444445 Z M 4,21.303028 H 9.5555537 V 49.636364 H 4 Z"
     id="path9705"
     style="fill:#cba6f7;fill-opacity:1;stroke-width:2.67484" />
</svg>
